<?xml version="1.0" encoding="UTF-8"?>
<svg xmlns="http://www.w3.org/2000/svg" xmlns:xlink="http://www.w3.org/1999/xlink" viewBox="0 0 512 512" width="512px" height="512px">
<g id="surface10626831">
<path style=" stroke:none;fill-rule:nonzero;fill:rgb(10.980392%,10.980392%,88.235295%);fill-opacity:1;" d="M 400 32 C 393.875 33.3125 388.25 34.625 382.5 36 C 381.875 36.1875 381 36.9375 381 37.5 C 380.875 43.1875 381 48.8125 381 55 C 387.375 53.75 393.125 52.6875 399 51.5 C 399.4375 51.375 400 50.4375 400 50 C 400.0625 43.9375 400 38.1875 400 32 Z M 376 37 C 371.6875 37.8125 367.6875 38.6875 363.5 39.5 C 356.875 40.8125 356.5 41 356.5 47.5 L 356.5 59.5 C 363.25 58.3125 369.6875 57.125 376 56 Z M 352 42 C 345.625 43.0625 339.5 43.9375 333.5 45 C 333.125 45.0625 332.5 45.5625 332.5 46 C 332.4375 51.5625 332.5 57.125 332.5 63 C 338.6875 62.0625 344.375 61.4375 350 60.5 C 350.6875 60.375 352 59.5 352 59 C 352.125 53.375 352 47.9375 352 42 Z M 303.5 49.5 C 296.9375 50.3125 290.25 51.1875 284 52 L 284 69.5 C 290.5 68.75 297.1875 67.75 303.5 67 Z M 424 50.5 C 418 51.75 411.8125 53.1875 406 54.5 C 405.5625 54.625 405 55.125 405 55.5 C 404.9375 60.875 405 65.9375 405 71.5 C 411.5 70.1875 417.75 69.25 424 68 C 424 62.25 424 56.5625 424 50.5 Z M 279.5 52.5 C 272.6875 53.1875 266.375 53.875 260 54.5 L 260 71.5 C 266.25 70.9375 271.9375 70.625 278 70 C 278.4375 69.9375 279.5 69.375 279.5 69 C 279.5625 63.5625 279.5 58.125 279.5 52.5 Z M 254.5 55 C 247.875 55.5 241.8125 56 235.5 56.5 L 235.5 73.5 C 242 73.0625 248.0625 72.4375 254.5 72 Z M 230.5 56.5 C 224 56.8125 217.5625 57.1875 211 57.5 L 211 75 C 217.625 74.625 224.1875 74.375 230.5 74 Z M 137.5 59 L 137.5 75.5 L 156.5 75.5 L 156.5 59 Z M 162 59 L 162 75.5 L 181.5 75.5 L 181.5 59 Z M 376 60 C 370.0625 61.0625 364.3125 62.4375 358.5 63.5 C 357.875 63.625 356.5 64.0625 356.5 64.5 C 356.375 69.5 356.5 74.6875 356.5 80 C 363.1875 78.9375 369.625 78 376 77 Z M 352 64.5 C 329.375 67.5 306.75 70.5 284 73.5 L 284 112.5 C 269.75 113.125 255.75 113.375 241.5 114 L 241.5 98.5 C 247.625 98.1875 253.625 97.8125 259.5 97.5 L 259.5 76 C 235 77.25 210.5 78.25 186 79.5 L 186 117 L 137.5 117 L 137.5 136 L 156.5 136 L 156.5 151 L 137.5 151 L 137.5 169.5 L 162 169.5 L 162 230 L 180.5 230 L 180.5 244.5 L 162 244.5 L 162 267.5 L 180.5 267.5 L 180.5 282 L 161.5 282 L 161.5 342.5 L 137.5 342.5 L 137.5 380.5 L 156.5 380.5 L 156.5 395 L 186.5 395 L 186.5 432.5 C 203.0625 433.1875 219.375 433.8125 236 434.5 L 236 420 C 242.5 420.5 248.125 421 254.5 421.5 L 254.5 397.5 C 264.4375 398.25 274.125 399.25 284 400 L 284 438.5 C 306.75 441.5 329.3125 444.5 352 447.5 L 352 407 C 356.0625 407.25 359.875 407.25 363.5 407.5 C 375.9375 408.3125 388.3125 408.125 400.5 405 C 423 399.3125 438.375 386.75 444.5 365 C 448.3125 351.5625 448.4375 337.75 447 324 C 445.8125 312.625 443.0625 301.9375 437 292 C 435.125 288.875 433.125 287.125 429 287.5 C 425.625 287.8125 421.9375 287.1875 418.5 287 C 414.0625 286.8125 409.5625 286.6875 405 286.5 C 405 280.1875 404.8125 274.5 405 268.5 C 405.0625 266.625 404.75 265.5 403 265 C 395.375 262.875 387.6875 260.4375 380 258.5 C 375.5625 257.375 371.125 256.8125 366.5 256 L 366.5 250 C 366.5 243.0625 366.5 243.3125 373.5 241 C 385.625 237 397.1875 232.625 407.5 225 C 419 216.5 427.625 206 432.5 193 C 436.9375 181.25 436.9375 168.8125 436 156.5 C 435.25 147.0625 433.1875 137.9375 428.5 129.5 C 424.8125 122.875 419.75 117.375 413 113.5 C 398.75 105.3125 382.875 103.125 366.5 104 C 361.6875 104.25 356.875 104.75 352 105 C 351.875 103.4375 352.0625 102.3125 352 101 C 345.625 101.75 339.1875 102.25 333 103 L 333 87.5 C 339.3125 86.625 345.8125 85.875 352 85 Z M 424 72.5 C 417.625 73.75 411.1875 74.8125 405 76 L 405 93 C 411.4375 91.875 417.875 90.5625 424 89.5 Z M 400 77 C 393.4375 78.125 387.125 78.9375 381 80 L 381 97 C 387.5 95.9375 393.6875 95 400 94 Z M 162 80 L 162 94.5 L 181 94.5 L 181 80 Z M 376 81 C 369.5 82 363.375 83 357 84 L 357 100.5 C 363.5625 99.5625 369.75 98.375 376 97.5 Z M 137.5 98.5 L 137.5 113 L 156.5 113 L 156.5 98.5 Z M 162 98.5 L 162 113 L 181.5 113 L 181.5 98.5 Z M 64 114.5 L 64 129.5 C 70.5 129.8125 77.0625 130.1875 83.5 130.5 L 83.5 115.5 C 77 115.1875 70.4375 114.8125 64 114.5 Z M 88.5 116 L 88.5 131 L 107.5 131 L 107.5 116 Z M 113 117 L 113 131.5 L 132 131.5 L 132 117 Z M 230.5 133.5 L 230.5 148.5 C 224.125 148.75 217.4375 149.25 211 149.5 L 211 134.5 C 217.4375 134.1875 224.125 133.8125 230.5 133.5 Z M 88.5 135 L 88.5 150 L 107.5 150 L 107.5 135 Z M 187 135 L 205.5 135 L 205.5 149.5 L 187 149.5 Z M 424 135 L 424 152.5 C 417.9375 153.1875 411.875 153.75 405.5 154.5 L 405.5 137.5 C 411.5 136.6875 417.5625 135.875 424 135 Z M 64 153 C 64 157.375 63.875 162.375 64 167 C 64 167.375 65 168 65.5 168 C 71.375 168.0625 77.4375 168 83.5 168 L 83.5 153 Z M 113 154.5 L 113 169.5 L 132 169.5 L 132 154.5 Z M 306 158 C 346.0625 157.0625 345.1875 173.625 345.5 185.5 C 346 207.3125 336.1875 226.9375 288 230.5 C 286.375 230.625 247.5625 232 247 232 C 247 208.1875 247 184.8125 247 161 C 248.625 160.875 299.8125 158.125 306 158 Z M 64 172 L 64 187 L 83.5 187 L 83.5 172 Z M 113 173.5 L 113 188 L 132 188 L 132 173.5 Z M 137.5 173.5 L 137.5 188.5 L 157 188.5 L 157 173.5 Z M 176.5 173.5 L 195.5 173.5 L 195.5 188 L 176.5 188 Z M 424 179.5 L 424 197.5 C 417.9375 197.875 411.8125 198.125 405.5 198.5 L 405.5 181.5 C 411.6875 180.9375 417.6875 180.0625 424 179.5 Z M 88.5 191.5 L 88.5 206.5 L 107.5 206.5 L 107.5 191.5 Z M 137.5 192.5 L 137.5 207 L 156.5 207 L 156.5 192.5 Z M 204 192.5 L 223 192.5 L 223 207 L 204 207 Z M 64 210 L 64 225.5 L 83.5 225.5 L 83.5 210 Z M 88.5 210.5 L 88.5 225.5 L 107.5 225.5 L 107.5 210.5 Z M 113 211 L 113 225.5 L 132 225.5 L 132 211 Z M 113 229.5 L 113 244.5 L 132 244.5 L 132 229.5 Z M 137.5 230 L 137.5 244.5 L 156.5 244.5 L 156.5 230 Z M 88.5 248.5 L 88.5 263.5 L 107.5 263.5 L 107.5 248.5 Z M 137.5 248.5 L 137.5 263.5 L 157 263.5 L 157 248.5 Z M 201.5 248.5 L 220.5 248.5 L 220.5 263.5 L 201.5 263.5 Z M 113 267.5 L 113 282.5 L 132 282.5 L 132 267.5 Z M 137.5 267.5 L 137.5 282 L 157 282 L 157 267.5 Z M 247 280.5 C 248.1875 280.5 282.3125 281.1875 288 281.5 C 348.25 284.5625 349.875 295.5 356 316 C 357.75 321.875 356.6875 328.0625 355 334 C 353.875 338.1875 350.625 354.0625 312 354 C 302.5 354 248.375 352 247 352 Z M 88.5 286.5 L 88.5 301.5 L 107.5 301.5 L 107.5 286.5 Z M 113 286.5 L 113 301 L 132.5 301 L 132.5 286.5 Z M 64 287 L 64 301.5 L 83.5 301.5 L 83.5 287 Z M 137.5 305 L 137.5 319.5 L 157 319.5 L 157 305 Z M 182 305 L 201 305 L 201 319.5 L 182 319.5 Z M 88.5 305.5 L 88.5 320 L 107.5 320 L 107.5 305.5 Z M 64 306 L 64 320.5 L 83.5 320.5 L 83.5 306 Z M 113 324 L 113 338.5 L 132 338.5 L 132 324 Z M 137.5 324 L 137.5 338.5 L 156.5 338.5 L 156.5 324 Z M 182 324 L 201 324 L 201 338.5 L 182 338.5 Z M 88.5 324.5 L 88.5 339 L 107.5 339 L 107.5 324.5 Z M 405.5 335.5 C 411.5625 336.0625 417.6875 336.4375 424 337 L 424 354.5 C 417.8125 353.8125 411.75 353.1875 405.5 352.5 Z M 88.5 343 L 88.5 358 L 107.5 358 L 107.5 343 Z M 113 361.5 L 113 376.5 L 132.5 376.5 L 132.5 361.5 Z M 162.5 361.5 L 181.5 361.5 L 181.5 376 L 162.5 376 Z M 88.5 362.5 L 88.5 377 L 107.5 377 L 107.5 362.5 Z M 261 363 L 280 363 L 280 378.5 C 276.8125 378.375 264.1875 377.625 261 377.5 Z M 309.5 365 C 314.3125 365.3125 319.3125 365.6875 324 366 C 325.5625 366.125 326.9375 366.375 328.5 366.5 L 328.5 381.5 C 323.8125 381.1875 311.125 380.625 309.5 380.5 Z M 113 380.5 L 113 395 L 132 395 L 132 380.5 Z M 83.5 381.5 C 76.875 381.875 70.375 382.1875 64 382.5 L 64 397.5 C 70.5 397.125 77.0625 396.875 83.5 396.5 Z M 137.5 399 L 137.5 413.5 L 157 413.5 L 157 399 Z M 162 399 L 162 413.5 L 181.5 413.5 L 181.5 399 Z M 211 399 L 230.5 399 L 230.5 413.5 L 211 413.5 Z M 107.5 399.5 C 101 399.75 94.8125 400.25 88.5 400.5 L 88.5 415.5 C 95 415.1875 101.1875 414.8125 107.5 414.5 Z M 113 399.5 L 113 414 L 132 414 L 132 399.5 Z M 83.5 400.5 C 77 400.875 70.4375 401.125 64 401.5 L 64 417 C 70.5625 416.5625 77.0625 415.9375 83.5 415.5 Z M 259.5 402 L 259.5 417 C 266.125 417.5 272.6875 418.5 279 419 C 279.1875 418.5 279.5 418.1875 279.5 418 C 279.5 415 279.5 412 279.5 409 C 279.5 403.5625 279.125 403.5 273.5 403 C 272.9375 402.9375 272.5625 403.0625 272 403 C 267.875 402.75 263.6875 402.3125 259.5 402 Z M 357 411.5 L 357 428 C 363.375 429 369.5 430 376 431 L 376 414.5 C 369.5625 413.625 363.375 412.375 357 411.5 Z M 381 415 C 381 416.625 381 418.0625 381 419.5 C 381 420.9375 381 422.625 381 424 C 381 425.875 380.1875 428.3125 380.5 430 C 380.625 430.5625 381.1875 431.125 381.5 431.5 C 382.6875 433 385.9375 432.5625 388.5 433 C 392.25 433.6875 396.1875 434.375 400 435 L 400 418 C 393.625 417 387.625 416 381 415 Z M 162 417.5 L 162 432.5 L 181.5 432.5 L 181.5 417.5 Z M 113 418 L 113 433 L 132.5 433 L 132.5 418 Z M 405 419 L 405 436 C 411.25 437.1875 417.625 438.25 424 439.5 L 424 422.5 C 417.625 421.375 411.3125 420.0625 405 419 Z M 260 421 L 260 436.5 C 266.5 437.0625 272.4375 437.375 279 438 L 279 422.5 C 272.4375 422 266.4375 421.5 260 421 Z M 357 432 L 357 448.5 C 363.375 449.625 369.5 450.875 376 452 L 376 435 C 369.625 434 363.4375 433 357 432 Z M 162 436.5 L 162 453 L 181.5 453 L 181.5 436.5 Z M 186.5 437 L 186.5 453.5 L 205.5 453.5 L 205.5 437 Z M 210.5 437 C 210.5 442.4375 210.875 447.9375 211 453 C 211 453.5625 211.8125 454.4375 212.5 454.5 C 215.375 454.8125 218.125 454.875 221 455 C 224 455.125 227.4375 455.375 230.5 455.5 L 230.5 438 C 223.875 437.6875 217.125 437.3125 210.5 437 Z M 235.5 438.5 L 235.5 455.5 C 241.9375 456 248.375 456.5 255 457 L 255 446 C 255 440.1875 254.5625 440.0625 248.5 439.5 C 244.125 439.125 240.0625 438.8125 235.5 438.5 Z M 284 442.5 L 284 460 C 290.5 460.8125 297.0625 461.6875 303.5 462.5 L 303.5 445 C 297.0625 444.25 290.5 443.25 284 442.5 Z M 308.5 445.5 L 308.5 463.5 C 315 464.4375 321.5625 465.0625 328 466 L 328 448 C 321.5 447.125 314.875 446.375 308.5 445.5 Z M 356.5 452.5 C 356.5 458.625 356.4375 464.4375 356.5 470 C 356.5 470.5 357.5 471.375 358 471.5 C 363.9375 472.6875 369.8125 473.8125 376 475 L 376 456 C 369.625 454.875 363.1875 453.6875 356.5 452.5 Z M 381 457 C 381 463.0625 380.875 468.875 381 474.5 C 381 475.0625 381.5 475.875 382 476 C 387.9375 477.375 393.75 478.625 400 480 C 400 473.8125 400.125 467.9375 400 462 C 400 461.5 399.1875 460.6875 398.5 460.5 C 394.8125 459.6875 390.6875 458.75 387 458 C 384.9375 457.625 383.25 457.4375 381 457 Z M 381 457 "/>
</g>
</svg>
