<?xml version="1.0" encoding="UTF-8"?>
<svg xmlns="http://www.w3.org/2000/svg" xmlns:xlink="http://www.w3.org/1999/xlink" viewBox="0 0 500 500" width="500px" height="500px">
<g id="surface3168806">
<path style=" stroke:none;fill-rule:nonzero;fill:rgb(100%,45.09804%,14.117648%);fill-opacity:1;" d="M 390.625 20 C 384.648438 21.367188 378.710938 22.695312 373.125 24.0625 C 372.5 24.21875 371.5625 25.039062 371.5625 25.625 C 371.445312 31.484375 371.5625 37.421875 371.5625 43.75 C 377.8125 42.421875 383.671875 41.25 389.375 40 C 389.84375 39.882812 390.3125 39.179688 390.3125 38.75 C 390.390625 32.539062 390.625 26.328125 390.625 20 Z M 366.875 25.3125 C 362.65625 26.171875 358.75 26.953125 354.6875 27.8125 C 348.242188 29.179688 348.125 29.296875 348.125 35.9375 L 348.125 48.125 C 354.6875 46.914062 360.742188 45.820312 366.875 44.6875 Z M 343.4375 30 C 337.226562 31.09375 331.484375 32.03125 325.625 33.125 C 325.234375 33.203125 324.6875 34.21875 324.6875 34.6875 C 324.609375 40.351562 324.6875 45.859375 324.6875 51.875 C 330.703125 50.898438 336.367188 50.039062 341.875 49.0625 C 342.539062 48.945312 343.4375 48.359375 343.4375 47.8125 C 343.554688 42.03125 343.4375 36.09375 343.4375 30 Z M 296.25 37.8125 C 289.882812 38.671875 283.632812 39.492188 277.5 40.3125 L 277.5 58.4375 C 283.867188 57.695312 290.078125 56.679688 296.25 55.9375 Z M 413.75 39.0625 C 407.929688 40.390625 402.265625 41.484375 396.5625 42.8125 C 396.09375 42.929688 395.3125 43.671875 395.3125 44.0625 C 395.234375 49.570312 395.3125 54.960938 395.3125 60.625 C 401.679688 59.296875 407.65625 58.164062 413.75 56.875 C 413.75 50.976562 413.75 45.273438 413.75 39.0625 Z M 272.8125 40.9375 C 266.171875 41.640625 259.960938 42.148438 253.75 42.8125 L 253.75 60.625 C 259.804688 60.039062 265.664062 59.6875 271.5625 59.0625 C 271.992188 59.023438 272.8125 58.203125 272.8125 57.8125 C 272.890625 52.265625 272.8125 46.71875 272.8125 40.9375 Z M 248.75 43.4375 C 242.265625 43.984375 236.171875 44.453125 230 45 L 230 62.5 C 236.328125 62.03125 242.460938 61.71875 248.75 61.25 Z M 225 45.3125 C 218.671875 45.664062 212.304688 45.898438 205.9375 46.25 L 205.9375 64.0625 C 212.382812 63.710938 218.828125 63.164062 225 62.8125 Z M 134.375 47.5 L 134.375 64.6875 L 153.125 64.6875 L 153.125 47.5 Z M 158.4375 47.8125 L 158.4375 64.6875 L 177.1875 64.6875 L 177.1875 47.8125 Z M 366.875 49.0625 C 361.054688 50.117188 355.351562 51.09375 349.6875 52.1875 C 349.101562 52.304688 348.125 52.96875 348.125 53.4375 C 348.007812 58.554688 348.125 63.632812 348.125 69.0625 C 354.648438 67.96875 360.703125 66.992188 366.875 65.9375 Z M 343.4375 53.4375 C 321.367188 56.523438 299.335938 59.726562 277.1875 62.8125 L 277.1875 102.5 C 263.320312 103.125 249.804688 103.75 235.9375 104.375 L 235.9375 88.4375 C 241.875 88.085938 247.695312 87.8125 253.4375 87.5 L 253.4375 65 C 229.570312 66.328125 205.742188 67.734375 181.875 69.0625 L 181.875 107.1875 L 134.375 107.1875 L 134.375 126.875 L 152.8125 126.875 L 152.8125 141.875 L 134.375 141.875 L 134.375 161.25 L 158.4375 161.25 L 158.4375 223.4375 L 176.5625 223.4375 L 176.5625 238.4375 L 158.4375 238.4375 L 158.4375 261.875 L 176.5625 261.875 L 176.5625 276.875 L 158.125 276.875 L 158.125 338.75 L 134.375 338.75 L 134.375 377.8125 L 152.8125 377.8125 L 152.8125 392.8125 L 182.1875 392.8125 L 182.1875 431.25 C 198.320312 431.953125 214.140625 432.734375 230.3125 433.4375 L 230.3125 418.4375 C 236.640625 418.984375 242.539062 419.453125 248.75 420 L 248.75 395.625 C 258.4375 396.367188 267.890625 397.070312 277.5 397.8125 L 277.5 437.1875 C 299.6875 440.273438 321.601562 443.476562 343.75 446.5625 L 343.75 405 C 347.695312 405.273438 351.171875 405.390625 354.6875 405.625 C 366.835938 406.484375 378.710938 406.328125 390.625 403.125 C 412.578125 397.265625 427.734375 384.21875 433.75 361.875 C 437.460938 348.085938 437.96875 334.140625 436.5625 320 C 435.390625 308.359375 432.148438 297.421875 426.25 287.1875 C 424.414062 283.984375 422.421875 282.109375 418.4375 282.5 C 415.15625 282.8125 411.796875 282.03125 408.4375 281.875 C 404.140625 281.679688 399.765625 281.445312 395.3125 281.25 C 395.3125 274.804688 395.15625 268.945312 395.3125 262.8125 C 395.351562 260.898438 394.804688 259.882812 393.125 259.375 C 385.703125 257.1875 378.4375 254.804688 370.9375 252.8125 C 366.601562 251.679688 362.03125 251.132812 357.5 250.3125 L 357.5 244.0625 C 357.5 236.953125 357.578125 237.070312 364.375 234.6875 C 376.210938 230.585938 387.773438 226.25 397.8125 218.4375 C 409.023438 209.6875 417.109375 198.671875 421.875 185.3125 C 426.171875 173.242188 426.523438 160.429688 425.625 147.8125 C 424.921875 138.125 422.695312 128.984375 418.125 120.3125 C 414.53125 113.515625 409.375 108.046875 402.8125 104.0625 C 388.90625 95.625 373.75 93.164062 357.8125 94.0625 C 353.164062 94.335938 348.476562 94.726562 343.75 95 C 343.671875 93.4375 343.515625 91.992188 343.4375 90.625 C 337.226562 91.40625 331.367188 92.382812 325.3125 93.125 L 325.3125 76.875 C 331.445312 75.976562 337.382812 75.273438 343.4375 74.375 Z M 413.75 61.25 C 407.539062 62.539062 401.367188 63.75 395.3125 65 L 395.3125 82.8125 C 401.5625 81.640625 407.773438 80.507812 413.75 79.375 Z M 390.3125 65.9375 C 383.867188 67.109375 377.851562 68.28125 371.875 69.375 L 371.875 86.5625 C 378.242188 85.507812 384.179688 84.453125 390.3125 83.4375 Z M 158.4375 69.0625 L 158.4375 84.0625 L 177.1875 84.0625 L 177.1875 69.0625 Z M 366.875 70.3125 C 360.546875 71.328125 354.296875 72.421875 348.125 73.4375 L 348.125 90.3125 C 354.570312 89.375 360.78125 88.398438 366.875 87.5 Z M 134.375 88.125 L 134.375 103.4375 L 153.125 103.4375 L 153.125 88.125 Z M 158.4375 88.125 L 158.4375 103.4375 L 177.1875 103.4375 L 177.1875 88.125 Z M 63.125 104.375 L 63.125 120 C 69.453125 120.351562 75.625 120.898438 81.875 121.25 L 81.875 105.625 C 75.546875 105.273438 69.414062 104.726562 63.125 104.375 Z M 86.875 106.25 L 86.875 121.5625 L 105.3125 121.5625 L 105.3125 106.25 Z M 110.625 107.1875 L 110.625 122.5 L 129.375 122.5 L 129.375 107.1875 Z M 225 124.375 L 225 139.6875 C 218.789062 139.960938 212.539062 140.351562 206.25 140.625 L 206.25 125.3125 C 212.539062 125 218.75 124.6875 225 124.375 Z M 86.875 125.625 L 86.875 140.9375 L 105.3125 140.9375 L 105.3125 125.625 Z M 413.75 125.625 L 413.75 143.75 C 407.8125 144.492188 401.796875 145.195312 395.625 145.9375 L 395.625 128.125 C 401.484375 127.265625 407.460938 126.5625 413.75 125.625 Z M 182.5 125.9375 L 200.9375 125.9375 L 200.9375 140.9375 L 182.5 140.9375 Z M 62.8125 144.375 C 62.8125 148.90625 62.695312 153.671875 62.8125 158.4375 C 62.8125 158.867188 63.867188 159.375 64.375 159.375 C 70.117188 159.453125 75.976562 159.6875 81.875 159.6875 L 81.875 144.375 Z M 110.625 145.9375 L 110.625 160.9375 L 129.375 160.9375 L 129.375 145.9375 Z M 298.75 149.375 C 337.8125 148.398438 336.914062 165.273438 337.1875 177.5 C 337.695312 199.921875 328.203125 220.117188 281.25 223.75 C 279.648438 223.867188 241.796875 225.3125 241.25 225.3125 C 241.25 200.859375 241.25 176.640625 241.25 152.1875 C 242.8125 152.070312 292.734375 149.53125 298.75 149.375 Z M 63.125 163.75 L 63.125 179.375 L 81.875 179.375 L 81.875 163.75 Z M 110.625 165 L 110.625 180.3125 L 129.375 180.3125 L 129.375 165 Z M 134.375 165.3125 L 134.375 180.3125 L 153.125 180.3125 L 153.125 165.3125 Z M 172.5 165.3125 L 190.9375 165.3125 L 190.9375 180.3125 L 172.5 180.3125 Z M 413.4375 171.5625 L 413.4375 189.6875 C 407.5 190.078125 401.796875 190.546875 395.625 190.9375 L 395.625 173.4375 C 401.640625 172.890625 407.304688 172.148438 413.4375 171.5625 Z M 86.875 184.0625 L 86.875 199.375 L 105.3125 199.375 L 105.3125 184.0625 Z M 134.375 184.6875 L 134.375 199.6875 L 153.125 199.6875 L 153.125 184.6875 Z M 199.0625 184.6875 L 217.5 184.6875 L 217.5 199.375 L 199.0625 199.375 Z M 63.125 203.125 L 63.125 218.4375 L 81.875 218.4375 L 81.875 203.125 Z M 86.875 203.4375 L 86.875 218.75 L 105.3125 218.75 L 105.3125 203.4375 Z M 110.625 203.75 L 110.625 218.75 L 129.375 218.75 L 129.375 203.75 Z M 110.625 223.125 L 110.625 238.125 L 129.375 238.125 L 129.375 223.125 Z M 134.375 223.125 L 134.375 238.125 L 153.125 238.125 L 153.125 223.125 Z M 86.875 242.5 L 86.875 257.8125 L 105.3125 257.8125 L 105.3125 242.5 Z M 134.375 242.5 L 134.375 257.5 L 153.125 257.5 L 153.125 242.5 Z M 196.875 242.5 L 215.3125 242.5 L 215.3125 257.5 L 196.875 257.5 Z M 110.625 261.875 L 110.625 276.875 L 129.375 276.875 L 129.375 261.875 Z M 134.375 261.875 L 134.375 276.875 L 153.4375 276.875 L 153.4375 261.875 Z M 241.25 275.3125 C 242.421875 275.3125 275.703125 275.9375 281.25 276.25 C 340 279.375 341.523438 290.78125 347.5 311.875 C 349.21875 317.929688 347.890625 324.179688 346.25 330.3125 C 345.117188 334.570312 342.070312 350.664062 304.375 350.625 C 295.15625 350.625 242.617188 348.4375 241.25 348.4375 Z M 86.875 281.25 L 86.875 296.5625 L 105.625 296.5625 L 105.625 281.25 Z M 110.625 281.25 L 110.625 296.25 L 129.375 296.25 L 129.375 281.25 Z M 63.125 281.5625 L 63.125 296.875 L 81.875 296.875 L 81.875 281.5625 Z M 134.375 300.3125 L 134.375 315.3125 L 153.125 315.3125 L 153.125 300.3125 Z M 177.8125 300.625 L 196.25 300.625 L 196.25 315.3125 L 177.8125 315.3125 Z M 86.875 300.9375 L 86.875 315.9375 L 105.3125 315.9375 L 105.3125 300.9375 Z M 63.125 301.25 L 63.125 316.5625 L 81.875 316.5625 L 81.875 301.25 Z M 110.625 319.6875 L 110.625 335 L 129.375 335 L 129.375 319.6875 Z M 134.375 319.6875 L 134.375 334.6875 L 153.125 334.6875 L 153.125 319.6875 Z M 177.8125 319.6875 L 196.25 319.6875 L 196.25 334.6875 L 177.8125 334.6875 Z M 86.875 320 L 86.875 335.3125 L 105.3125 335.3125 L 105.3125 320 Z M 395.625 331.5625 C 401.5625 332.148438 407.578125 332.539062 413.75 333.125 L 413.75 351.25 C 407.695312 350.546875 401.71875 350.078125 395.625 349.375 Z M 86.875 339.6875 L 86.875 354.6875 L 105.3125 354.6875 L 105.3125 339.6875 Z M 110.625 358.4375 L 110.625 373.4375 L 129.375 373.4375 L 129.375 358.4375 Z M 158.75 358.4375 L 177.1875 358.4375 L 177.1875 373.4375 L 158.75 373.4375 Z M 86.875 359.0625 L 86.875 374.375 L 105.3125 374.375 L 105.3125 359.0625 Z M 254.6875 360 L 273.125 360 L 273.125 375.625 C 270.039062 375.46875 257.8125 374.84375 254.6875 374.6875 Z M 302.1875 361.875 C 306.875 362.1875 311.367188 362.5 315.9375 362.8125 C 317.460938 362.929688 319.101562 363.007812 320.625 363.125 L 320.625 379.0625 C 316.054688 378.710938 303.75 377.617188 302.1875 377.5 Z M 110.625 377.8125 L 110.625 392.8125 L 129.375 392.8125 L 129.375 377.8125 Z M 81.875 378.75 C 75.429688 379.101562 69.296875 379.648438 63.125 380 L 63.125 395.625 C 69.492188 395.234375 75.585938 394.765625 81.875 394.375 Z M 134.375 396.5625 L 134.375 411.875 L 153.4375 411.875 L 153.4375 396.5625 Z M 158.4375 396.5625 L 158.4375 411.875 L 177.1875 411.875 L 177.1875 396.5625 Z M 206.25 396.875 L 225 396.875 L 225 411.5625 L 206.25 411.5625 Z M 105.3125 397.1875 C 98.984375 397.460938 93.046875 397.851562 86.875 398.125 L 86.875 413.75 C 93.203125 413.476562 99.140625 413.085938 105.3125 412.8125 Z M 110.625 397.1875 L 110.625 412.1875 L 129.375 412.1875 L 129.375 397.1875 Z M 81.875 398.4375 C 75.546875 398.828125 69.414062 399.296875 63.125 399.6875 L 63.125 415.3125 C 69.53125 414.882812 75.625 414.492188 81.875 414.0625 Z M 253.4375 400 L 253.4375 415.625 C 259.921875 416.171875 266.367188 416.679688 272.5 417.1875 C 272.65625 416.679688 272.8125 416.40625 272.8125 416.25 C 272.851562 413.164062 272.8125 410.273438 272.8125 407.1875 C 272.8125 401.5625 272.65625 401.445312 267.1875 400.9375 C 266.640625 400.898438 266.171875 400.664062 265.625 400.625 C 261.640625 400.351562 257.539062 400.273438 253.4375 400 Z M 348.125 409.6875 L 348.125 426.5625 C 354.335938 427.578125 360.546875 428.671875 366.875 429.6875 L 366.875 412.5 C 360.585938 411.5625 354.375 410.625 348.125 409.6875 Z M 371.5625 413.4375 C 371.5625 415.117188 371.5625 416.640625 371.5625 418.125 C 371.5625 419.609375 371.523438 421.054688 371.5625 422.5 C 371.601562 424.453125 371.25 426.679688 371.5625 428.4375 C 371.679688 429.023438 371.875 429.570312 372.1875 430 C 373.359375 431.523438 376.914062 431.40625 379.375 431.875 C 383.046875 432.578125 386.601562 433.085938 390.3125 433.75 L 390.3125 416.5625 C 384.101562 415.546875 378.046875 414.492188 371.5625 413.4375 Z M 158.4375 415.9375 L 158.4375 430.9375 L 177.1875 430.9375 L 177.1875 415.9375 Z M 110.625 416.25 L 110.625 431.5625 L 129.375 431.5625 L 129.375 416.25 Z M 395.3125 417.5 L 395.3125 435 C 401.445312 436.25 407.578125 437.5 413.75 438.75 L 413.75 420.625 C 407.578125 419.492188 401.484375 418.632812 395.3125 417.5 Z M 253.75 419.6875 L 253.75 435.3125 C 260.078125 435.898438 266.054688 436.5625 272.5 437.1875 L 272.5 421.25 C 266.09375 420.703125 260.039062 420.234375 253.75 419.6875 Z M 348.125 430.9375 L 348.125 447.5 C 354.335938 448.632812 360.546875 449.804688 366.875 450.9375 L 366.875 434.0625 C 360.625 433.007812 354.414062 431.992188 348.125 430.9375 Z M 158.4375 435 L 158.4375 452.1875 L 177.1875 452.1875 L 177.1875 435 Z M 182.1875 435.625 L 182.1875 452.8125 L 200.9375 452.8125 L 200.9375 435.625 Z M 205.9375 436.25 C 205.9375 441.835938 205.78125 446.992188 205.9375 452.1875 C 205.9375 452.734375 207.109375 453.671875 207.8125 453.75 C 210.585938 454.0625 213.4375 453.90625 216.25 454.0625 C 219.179688 454.21875 222.03125 454.53125 225 454.6875 L 225 437.1875 C 218.515625 436.875 212.382812 436.5625 205.9375 436.25 Z M 230 437.5 L 230 455 C 236.289062 455.507812 242.265625 456.015625 248.75 456.5625 L 248.75 445 C 248.75 439.0625 248.75 438.984375 242.8125 438.4375 C 238.515625 438.046875 234.453125 437.851562 230 437.5 Z M 277.5 441.5625 L 277.5 459.6875 C 283.828125 460.507812 289.960938 461.367188 296.25 462.1875 L 296.25 444.0625 C 289.960938 443.320312 283.828125 442.304688 277.5 441.5625 Z M 301.25 444.6875 L 301.25 462.8125 C 307.578125 463.789062 313.710938 464.960938 320 465.9375 L 320 447.1875 C 313.671875 446.289062 307.5 445.585938 301.25 444.6875 Z M 348.125 451.875 C 348.125 458.164062 348.046875 463.984375 348.125 469.6875 C 348.125 470.195312 348.90625 470.820312 349.375 470.9375 C 355.195312 472.1875 360.859375 473.476562 366.875 474.6875 L 366.875 455.3125 C 360.664062 454.179688 354.609375 453.085938 348.125 451.875 Z M 371.5625 456.5625 C 371.5625 462.773438 371.484375 468.28125 371.5625 474.0625 C 371.5625 474.6875 372.304688 475.820312 372.8125 475.9375 C 378.59375 477.34375 384.53125 478.632812 390.625 480 C 390.625 473.671875 390.429688 467.695312 390.3125 461.5625 C 390.3125 461.015625 389.453125 460.15625 388.75 460 C 385.15625 459.140625 381.445312 458.242188 377.8125 457.5 C 375.820312 457.109375 373.789062 456.992188 371.5625 456.5625 Z M 371.5625 456.5625 "/>
</g>
</svg>
